<?xml version="1.0" encoding="utf-8"?>
<!-- Generator: Adobe Illustrator 16.0.0, SVG Export Plug-In . SVG Version: 6.00 Build 0)  -->
<!DOCTYPE svg PUBLIC "-//W3C//DTD SVG 1.1//EN" "http://www.w3.org/Graphics/SVG/1.1/DTD/svg11.dtd">
<svg version="1.1" xmlns="http://www.w3.org/2000/svg" xmlns:xlink="http://www.w3.org/1999/xlink" x="0px" y="0px" width="1024px"
	 height="1024px" viewBox="0 0 1024 1024" style="enable-background:new 0 0 1024 1024;" xml:space="preserve">
<g id="Image_xA0_11_1_">
	<g id="Rounded_Rectangle_2_copy">
		<g>
			<path style="fill-rule:evenodd;clip-rule:evenodd;fill:#FBAC2B;" d="M641,430.898V157.756c0-5.389-4.314-9.756-9.637-9.756
				H226.636c-5.322,0-9.636,4.367-9.636,9.756v698.488c0,5.389,4.314,9.756,9.636,9.756h404.727c5.322,0,9.637-4.367,9.637-9.756
				V589.102c-38.489-5.79-68-38.998-68-79.102S602.511,436.688,641,430.898z"/>
		</g>
	</g>
	<g id="Ellipse_2_copy_3">
		<g>
			<path style="fill-rule:evenodd;clip-rule:evenodd;fill:#0F4C78;" d="M671,195.345C671,155.39,638.608,123,598.651,123
				c-1.294,0-2.579,0.037-3.855,0.104c-0.006-0.032-0.013-0.073-0.019-0.104H268.841c-0.002,0.05-0.005,0.103-0.007,0.152
				c-1.484-0.091-2.978-0.152-4.485-0.152c-39.944,0-72.326,32.367-72.348,72.304c0,0,0,0-0.001,0v629.521
				c0,0,0.018,0.003,0.021,0.004c-0.003,0.276-0.021,0.55-0.021,0.827c0,39.676,31.945,71.876,71.518,72.323V898h328.791
				c0.029-0.095,0.058-0.191,0.087-0.287c2.063,0.177,4.146,0.287,6.256,0.287c39.303,0,71.262-31.344,72.3-70.394l0.049-0.011
				V587.941c-5.788,1.332-11.808,2.059-18,2.059c-5.66,0-11.18-0.596-16.507-1.714v202.513l-0.044,0.01
				c-0.924,34.732-21.495,62.61-56.51,62.61c-1.879,0-3.734-0.098-5.573-0.255c-0.025,0.084-0.052,0.171-0.077,0.255H281.367V853.4
				c-35.255-0.398-57.393-29.038-57.393-64.328c0-0.246,0.016-0.489,0.019-0.735c-0.003-0.001-0.019-0.004-0.019-0.004V228.412
				c0-0.001,0.001-0.001,0.001-0.001c0.02-35.521,22.547-64.31,58.133-64.31c1.343,0,2.673,0.055,3.996,0.136
				c0.002-0.045,0.004-0.092,0.006-0.136h290.378c0.005,0.028,0.012,0.064,0.017,0.093c1.138-0.06,2.282-0.093,3.435-0.093
				c35.598,0,56.554,28.809,56.554,64.347c0,0.563-0.028,1.12-0.043,1.68c0.015,0.001,0.028,0.001,0.043,0.002v201.584
				C641.82,430.596,647.34,430,653,430c6.192,0,12.212,0.727,18,2.059V197.235c-0.016-0.001-0.032-0.001-0.048-0.002
				C670.969,196.604,671,195.978,671,195.345z"/>
		</g>
	</g>
	<g id="Rounded_Rectangle_1">
		<g>
			<path style="fill-rule:evenodd;clip-rule:evenodd;fill:#0F4C78;" d="M544.545,769.421h-77.091c-5.321,0-9.636,4.368-9.636,9.756
				v23.413c0,5.388,4.314,9.755,9.636,9.755h77.091c5.322,0,9.637-4.367,9.637-9.755v-23.413
				C554.182,773.789,549.867,769.421,544.545,769.421z"/>
		</g>
	</g>
	<g id="Ellipse_2">
		<g>
			<ellipse style="fill-rule:evenodd;clip-rule:evenodd;fill:#0F4C78;" cx="651.254" cy="511.746" rx="47.254" ry="47.371"/>
		</g>
	</g>
	<g id="Ellipse_3_copy_2">
		<g>
			<path style="fill-rule:evenodd;clip-rule:evenodd;fill:#0F4C78;" d="M803.313,324.478c-0.83-0.948-1.732-1.83-2.713-2.622
				c-0.214-0.203-0.421-0.412-0.636-0.615l-0.102,0.062c-3.633-2.691-8.11-4.302-12.975-4.302c-12.082,0-21.876,9.818-21.876,21.931
				c0,5.938,2.363,11.314,6.186,15.263l-1.121,0.482c41.956,39.933,68.186,96.305,68.43,158.824
				c-0.244,62.519-26.474,118.892-68.43,158.824l1.121,0.482c-3.822,3.948-6.186,9.325-6.186,15.263
				c0,12.112,9.794,21.931,21.876,21.931c4.864,0,9.342-1.61,12.975-4.302l0.102,0.061c0.215-0.202,0.422-0.411,0.636-0.614
				c0.98-0.792,1.883-1.675,2.713-2.622c49.19-48.032,79.961-114.915,80.674-189.022
				C883.273,439.393,852.503,372.51,803.313,324.478z"/>
		</g>
	</g>
	<g id="Ellipse_2_copy_4">
		<g>
			<path style="fill-rule:evenodd;clip-rule:evenodd;fill:#0F4C78;" d="M738.624,395.593l-0.334,0.558
				c-3.661-2.337-7.995-3.709-12.656-3.709c-13.049,0-23.627,10.604-23.627,23.686c0,6.199,2.395,11.823,6.283,16.045l-0.047,0.055
				c0.206,0.182,0.398,0.376,0.603,0.559c0.308,0.312,0.638,0.598,0.961,0.892c21.666,19.843,35.416,48.203,35.909,79.823
				c-0.493,31.62-14.243,59.979-35.909,79.823c-0.323,0.294-0.653,0.58-0.961,0.891c-0.204,0.183-0.396,0.378-0.603,0.56
				l0.047,0.055c-3.889,4.221-6.283,9.846-6.283,16.045c0,13.081,10.578,23.685,23.627,23.685c4.661,0,8.995-1.372,12.656-3.708
				l0.334,0.558c34.057-27.98,55.851-70.385,56.117-117.907C794.475,465.978,772.681,423.572,738.624,395.593z"/>
		</g>
	</g>
	<g id="N">
		<g>
			<path style="fill:#0F4C78;" d="M510.191,431.688v174.787h-33.222l-87.175-106.121v106.121h-39.966V431.688h33.471l86.926,106.121
				V431.688H510.191z"/>
		</g>
	</g>
	<g id="Rounded_Rectangle_1_1_">
		<g>
			<path style="fill-rule:evenodd;clip-rule:evenodd;fill:#0F4C78;" d="M537.955,467.546h-213.91c-2.786,0-5.045,2.248-5.045,5.021
				v24.099c0,2.773,2.259,5.021,5.045,5.021h213.91c2.786,0,5.045-2.248,5.045-5.021v-24.099
				C543,469.794,540.741,467.546,537.955,467.546z"/>
		</g>
	</g>
	<g id="Rounded_Rectangle_1_copy">
		<g>
			<path style="fill-rule:evenodd;clip-rule:evenodd;fill:#0F4C78;" d="M537.955,530.808h-213.91c-2.786,0-5.045,2.248-5.045,5.021
				v24.1c0,2.772,2.259,5.021,5.045,5.021h213.91c2.786,0,5.045-2.248,5.045-5.021v-24.1
				C543,533.056,540.741,530.808,537.955,530.808z"/>
		</g>
	</g>
</g>
<g id="Image_xA0_19_1_" style="display:none;">
	<g id="Rounded_Rectangle_2_copy_3" style="display:inline;">
		<g>
			<path style="fill-rule:evenodd;clip-rule:evenodd;fill:#FBAC2B;" d="M708.363,148H303.636c-5.322,0-9.636,4.367-9.636,9.756
				v698.488c0,5.389,4.314,9.756,9.636,9.756h404.727c5.322,0,9.637-4.367,9.637-9.756V157.756C718,152.367,713.686,148,708.363,148
				z"/>
		</g>
	</g>
	<g id="Ellipse_2_copy_6" style="display:inline;">
		<g>
			<path style="fill-rule:evenodd;clip-rule:evenodd;fill:#0F4C78;" d="M748,195.345C748,155.39,715.608,123,675.651,123
				c-1.294,0-2.579,0.037-3.855,0.104c-0.006-0.032-0.013-0.073-0.019-0.104H345.841c-0.002,0.05-0.005,0.103-0.007,0.152
				c-1.484-0.091-2.978-0.152-4.485-0.152c-39.944,0-72.326,32.367-72.348,72.304c0,0,0,0-0.001,0v629.521
				c0,0,0.018,0.003,0.021,0.004c-0.003,0.276-0.021,0.55-0.021,0.827c0,39.676,31.945,71.876,71.518,72.323V898h328.791
				c0.029-0.095,0.058-0.191,0.087-0.287c2.063,0.177,4.146,0.287,6.256,0.287c39.303,0,71.262-31.344,72.3-70.394l0.049-0.011
				v-630.36c-0.016-0.001-0.032-0.001-0.048-0.002C747.969,196.604,748,195.978,748,195.345z M713.493,230.13v560.669l-0.044,0.01
				c-0.924,34.732-21.495,62.61-56.51,62.61c-1.879,0-3.734-0.098-5.573-0.255c-0.025,0.084-0.052,0.171-0.077,0.255H358.367V853.4
				c-35.255-0.398-57.393-29.038-57.393-64.328c0-0.246,0.016-0.489,0.019-0.735c-0.003-0.001-0.019-0.004-0.019-0.004V228.412
				c0-0.001,0.001-0.001,0.001-0.001c0.02-35.521,22.547-64.31,58.133-64.31c1.343,0,2.673,0.055,3.996,0.136
				c0.002-0.045,0.004-0.092,0.006-0.136h290.378c0.005,0.028,0.012,0.064,0.017,0.093c1.138-0.06,2.282-0.093,3.435-0.093
				c35.598,0,56.554,28.809,56.554,64.347c0,0.563-0.028,1.12-0.043,1.68C713.465,230.129,713.479,230.129,713.493,230.13z"/>
		</g>
	</g>
	<g id="Ellipse_2_1_" style="display:inline;">
		<g>
			<ellipse style="fill-rule:evenodd;clip-rule:evenodd;fill:#0F4C78;" cx="506.924" cy="584.637" rx="42.549" ry="42.363"/>
		</g>
	</g>
	<g id="Ellipse_3_copy_2_1_" style="display:inline;">
		<g>
			<path style="fill-rule:evenodd;clip-rule:evenodd;fill:#0F4C78;" d="M681.136,451.409l0.055-0.092
				c-0.182-0.192-0.369-0.379-0.552-0.57c-0.712-0.879-1.504-1.688-2.355-2.432c-43.144-44.1-103.219-71.685-169.783-72.325
				c-66.565,0.641-126.64,28.226-169.783,72.325c-0.852,0.744-1.644,1.553-2.356,2.432c-0.182,0.191-0.37,0.378-0.552,0.57
				l0.055,0.092c-2.417,3.256-3.864,7.271-3.864,11.631c0,10.832,8.819,19.612,19.699,19.612c5.333,0,10.163-2.118,13.709-5.546
				l0.433,1.006c35.869-37.614,86.503-61.129,142.659-61.348c56.155,0.219,106.79,23.733,142.659,61.348l0.433-1.006
				c3.547,3.428,8.377,5.546,13.709,5.546c10.88,0,19.699-8.78,19.699-19.612C685,458.68,683.553,454.665,681.136,451.409z"/>
		</g>
	</g>
	<g id="Ellipse_2_copy_4_1_" style="display:inline;">
		<g>
			<path style="fill-rule:evenodd;clip-rule:evenodd;fill:#0F4C78;" d="M613.906,506.608l0.5-0.3
				c-25.132-30.531-63.221-50.07-105.906-50.31c-42.686,0.239-80.774,19.778-105.907,50.31l0.501,0.3
				c-2.098,3.282-3.33,7.167-3.33,11.347c0,11.698,9.524,21.182,21.274,21.182c5.567,0,10.62-2.147,14.411-5.633l0.05,0.042
				c0.162-0.185,0.338-0.357,0.502-0.541c0.279-0.275,0.536-0.571,0.801-0.861c17.823-19.423,43.296-31.751,71.698-32.192
				c28.402,0.441,53.875,12.77,71.698,32.192c0.265,0.29,0.521,0.586,0.801,0.861c0.164,0.184,0.339,0.356,0.502,0.541l0.049-0.042
				c3.792,3.485,8.845,5.633,14.412,5.633c11.75,0,21.274-9.483,21.274-21.182C617.236,513.775,616.004,509.891,613.906,506.608z"/>
		</g>
	</g>
	<g id="Rounded_Rectangle_1_copy_2" style="display:inline;">
		<g>
			<path style="fill-rule:evenodd;clip-rule:evenodd;fill:#0F4C78;" d="M549.545,769.421h-77.091c-5.321,0-9.636,4.368-9.636,9.756
				v23.413c0,5.388,4.314,9.755,9.636,9.755h77.091c5.322,0,9.637-4.367,9.637-9.755v-23.413
				C559.182,773.789,554.867,769.421,549.545,769.421z"/>
		</g>
	</g>
</g>
<g id="Image_xA0_28_1_" style="display:none;">
	<g id="Rectangle_1" style="display:inline;">
		<g>
			<path style="fill-rule:evenodd;clip-rule:evenodd;fill:#0F4C78;" d="M510.5,281C384.855,281,283,383.014,283,508.853
				c0,80.086,41.261,150.512,103.646,191.144h247.708C696.739,659.364,738,588.938,738,508.853C738,383.014,636.145,281,510.5,281z
				 M425.819,808.859h170.625v-36.71H425.819V808.859z M427.423,824.049c1.24,10.604,7.007,34.178,33.785,34.178h6.211
				c4.622,23.92,22.714,41.773,44.345,41.773s39.724-17.854,44.345-41.773h1.155c36.936,0,38.166-24.563,37.234-34.178H427.423z
				 M398.014,753.161h224.973v-34.178H398.014V753.161z"/>
		</g>
	</g>
	<g id="Shape_4_copy" style="display:inline;">
		<g>
			<polygon style="fill-rule:evenodd;clip-rule:evenodd;fill:#FBAC2B;" points="600.236,486.824 519.386,486.824 564.303,358.217 
				405.598,534.679 486.447,534.679 441.53,663.286 			"/>
		</g>
	</g>
	<g id="Rounded_Rectangle_3" style="display:inline;">
		<g>
			<path style="fill-rule:evenodd;clip-rule:evenodd;fill:#FBAC2B;" d="M522,128h-22c-5.522,0-10,4.478-10,10v65
				c0,5.522,4.478,10,10,10h22c5.522,0,10-4.478,10-10v-65C532,132.478,527.522,128,522,128z"/>
		</g>
	</g>
	<g id="Rounded_Rectangle_3_copy_7" style="display:inline;">
		<g>
			<path style="fill-rule:evenodd;clip-rule:evenodd;fill:#FBAC2B;" d="M807.53,273.855l-14.014-16.959
				c-3.518-4.258-9.821-4.857-14.078-1.339l-50.107,41.403c-4.258,3.518-4.857,9.821-1.339,14.078l14.013,16.96
				c3.519,4.257,9.821,4.856,14.079,1.339l50.107-41.403C810.448,284.416,811.048,278.113,807.53,273.855z"/>
		</g>
	</g>
	<g id="Rounded_Rectangle_3_copy_8" style="display:inline;">
		<g>
			<path style="fill-rule:evenodd;clip-rule:evenodd;fill:#FBAC2B;" d="M296.669,296.961l-50.107-41.403
				c-4.257-3.519-10.561-2.919-14.078,1.339l-14.014,16.959c-3.518,4.258-2.918,10.561,1.339,14.079l50.107,41.403
				c4.258,3.518,10.561,2.918,14.079-1.339l14.014-16.96C301.526,306.782,300.927,300.479,296.669,296.961z"/>
		</g>
	</g>
	<g id="Rounded_Rectangle_3_copy_5" style="display:inline;">
		<g>
			<path style="fill-rule:evenodd;clip-rule:evenodd;fill:#FBAC2B;" d="M207,466h-65c-5.523,0-10,4.478-10,10v22
				c0,5.522,4.477,10,10,10h65c5.523,0,10-4.478,10-10v-22C217,470.478,212.523,466,207,466z"/>
		</g>
	</g>
	<g id="Rounded_Rectangle_3_copy_6" style="display:inline;">
		<g>
			<path style="fill-rule:evenodd;clip-rule:evenodd;fill:#FBAC2B;" d="M874,466h-65c-5.522,0-10,4.478-10,10v22
				c0,5.522,4.478,10,10,10h65c5.522,0,10-4.478,10-10v-22C884,470.478,879.522,466,874,466z"/>
		</g>
	</g>
</g>
<g id="PAY_TV_1_" style="display:none;">
	<g id="Rectangle_4" style="display:inline;">
		<g>
			<rect x="116" y="218" style="fill-rule:evenodd;clip-rule:evenodd;fill:#FBAC2B;" width="768" height="492"/>
		</g>
	</g>
	<g id="Rounded_Rectangle_3_1_" style="display:inline;">
		<g>
			<path style="fill-rule:evenodd;clip-rule:evenodd;fill:#0F4C78;" d="M885.601,190H109.399C102.551,190,97,195.523,97,202.338
				v535.454c0,6.814,5.551,12.338,12.399,12.338h776.201c6.848,0,12.399-5.523,12.399-12.338V202.338
				C898,195.523,892.448,190,885.601,190z M866.214,658.041H141.5V232.356h724.714V658.041z"/>
		</g>
	</g>
	<g id="Rectangle_3" style="display:inline;">
		<g>
			<path style="fill-rule:evenodd;clip-rule:evenodd;fill:#0F4C78;" d="M595.138,834.68l-14.831-61.076
				c-1.308-5.387-7.874-9.604-14.711-9.604H457.9c-6.836,0-13.402,4.218-14.711,9.604l-14.83,61.076h-58.348V857h280.997v-22.32
				H595.138z"/>
		</g>
	</g>
	<g id="Ellipse_2_copy" style="display:inline;">
		<g>
			<circle style="fill-rule:evenodd;clip-rule:evenodd;fill:#0F4C78;" cx="510.503" cy="433.502" r="33.502"/>
		</g>
	</g>
	<g id="Ellipse_3_copy_3" style="display:inline;">
		<g>
			<path style="fill-rule:evenodd;clip-rule:evenodd;fill:#0F4C78;" d="M652.081,314.737c-0.524-0.601-1.094-1.159-1.713-1.661
				c-0.135-0.129-0.266-0.262-0.401-0.39l-0.064,0.039c-2.293-1.705-5.119-2.726-8.189-2.726c-7.627,0-13.81,6.221-13.81,13.895
				c0,3.762,1.491,7.169,3.904,9.671l-0.708,0.306c26.485,25.301,43.043,61.018,43.197,100.629
				c-0.154,39.611-16.712,75.328-43.197,100.629l0.708,0.306c-2.413,2.502-3.904,5.908-3.904,9.67
				c0,7.675,6.183,13.896,13.81,13.896c3.07,0,5.896-1.021,8.189-2.726l0.064,0.039c0.136-0.129,0.267-0.261,0.401-0.39
				c0.619-0.502,1.188-1.062,1.713-1.662c31.052-30.433,50.475-72.808,50.926-119.762
				C702.556,387.546,683.133,345.17,652.081,314.737z"/>
		</g>
	</g>
	<g id="Ellipse_2_copy_7" style="display:inline;">
		<g>
			<path style="fill-rule:evenodd;clip-rule:evenodd;fill:#0F4C78;" d="M611.246,359.795l-0.211,0.354
				c-2.312-1.48-5.047-2.35-7.989-2.35c-8.237,0-14.915,6.719-14.915,15.007c0,3.928,1.512,7.491,3.966,10.166l-0.029,0.034
				c0.13,0.115,0.252,0.238,0.381,0.354c0.193,0.197,0.402,0.379,0.606,0.564c13.677,12.572,22.356,30.541,22.668,50.575
				c-0.312,20.034-8.991,38.003-22.668,50.575c-0.204,0.186-0.413,0.367-0.606,0.564c-0.129,0.115-0.251,0.239-0.381,0.354
				l0.029,0.034c-2.454,2.675-3.966,6.238-3.966,10.166c0,8.288,6.678,15.007,14.915,15.007c2.942,0,5.678-0.869,7.989-2.35
				l0.211,0.354c21.498-17.729,35.256-44.596,35.424-74.705C646.502,404.39,632.744,377.523,611.246,359.795z"/>
		</g>
	</g>
	<g id="Ellipse_3_copy_4" style="display:inline;">
		<g>
			<path style="fill-rule:evenodd;clip-rule:evenodd;fill:#0F4C78;" d="M392.9,535.129c-26.485-25.301-43.042-61.018-43.196-100.629
				c0.154-39.611,16.711-75.328,43.196-100.629l-0.708-0.306c2.413-2.502,3.904-5.909,3.904-9.671
				c0-7.674-6.183-13.895-13.81-13.895c-3.07,0-5.896,1.021-8.189,2.726l-0.064-0.039c-0.136,0.128-0.267,0.261-0.401,0.39
				c-0.619,0.502-1.188,1.061-1.713,1.661c-31.051,30.433-50.475,72.809-50.926,119.763c0.451,46.954,19.875,89.329,50.926,119.762
				c0.524,0.601,1.094,1.16,1.713,1.662c0.135,0.129,0.266,0.261,0.401,0.39l0.064-0.039c2.293,1.705,5.12,2.726,8.189,2.726
				c7.627,0,13.81-6.221,13.81-13.896c0-3.762-1.491-7.168-3.904-9.67L392.9,535.129z"/>
		</g>
	</g>
	<g id="Ellipse_2_copy_8" style="display:inline;">
		<g>
			<path style="fill-rule:evenodd;clip-rule:evenodd;fill:#0F4C78;" d="M431.933,485.994c-0.13-0.115-0.252-0.239-0.381-0.354
				c-0.194-0.197-0.402-0.379-0.606-0.564c-13.677-12.572-22.356-30.541-22.668-50.575c0.312-20.034,8.991-38.003,22.668-50.575
				c0.204-0.186,0.412-0.367,0.606-0.564c0.129-0.116,0.251-0.239,0.381-0.354l-0.029-0.034c2.454-2.675,3.966-6.238,3.966-10.166
				c0-8.288-6.678-15.007-14.915-15.007c-2.942,0-5.678,0.869-7.989,2.35l-0.211-0.354c-21.498,17.729-35.256,44.595-35.424,74.705
				c0.168,30.109,13.926,56.977,35.424,74.705l0.211-0.354c2.312,1.48,5.047,2.35,7.989,2.35c8.237,0,14.915-6.719,14.915-15.007
				c0-3.928-1.512-7.491-3.966-10.166L431.933,485.994z"/>
		</g>
	</g>
	<g id="Ellipse_2_copy_9" style="display:inline;">
		<g>
			<path style="fill-rule:evenodd;clip-rule:evenodd;fill:#0F4C78;" d="M568.924,704.677l-22.886-190.994
				c-0.081-0.684-0.467-1.334-1.074-1.938C541.298,497.514,528.378,487,513.003,487c-15.574,0-28.62,10.791-32.09,25.301
				c-0.323,0.442-0.537,0.903-0.594,1.382l-22.886,190.994c-1.128,9.41,9.18,17.323,23.063,17.323h65.363
				C559.744,722,570.052,714.087,568.924,704.677z"/>
		</g>
	</g>
</g>
</svg>
